<svg width="69" height="104" viewBox="0 0 69 104" fill="none" xmlns="http://www.w3.org/2000/svg">
<g clip-path="url(#clip0_162_683)">
<rect x="68" width="1" height="7" fill="#E9E8E6"/>
<path d="M61.5 7.5C61.6667 4.5 62.2 0 69 0" stroke="#A0A0A0" stroke-width="0.3"/>
<rect x="61" y="7" width="8" height="0.8" fill="#7A7D81"/>
</g>
<g clip-path="url(#clip1_162_683)">
<rect x="1" y="103.457" width="1" height="7" transform="rotate(180 1 103.457)" fill="#EFEEEC"/>
<path d="M7.5 95.957C7.33333 98.957 6.8 103.457 0 103.457" stroke="#A0A0A0" stroke-width="0.3"/>
<rect x="8" y="96.457" width="8" height="0.8" transform="rotate(180 8 96.457)" fill="#7A7D81"/>
</g>
<rect x="26.1" y="14.0714" width="33.8" height="6.14286" stroke="#9FA0A0" stroke-width="0.2"/>
<rect x="26.1" y="29.9286" width="33.8" height="6.14286" stroke="#9FA0A0" stroke-width="0.2"/>
<rect x="26.1" y="45.7858" width="33.8" height="6.14286" stroke="#9FA0A0" stroke-width="0.2"/>
<rect x="26.1" y="61.6427" width="33.8" height="6.14286" stroke="#9FA0A0" stroke-width="0.2"/>
<rect x="26.1" y="77.4999" width="33.8" height="6.14286" stroke="#9FA0A0" stroke-width="0.2"/>
<defs>
<clipPath id="clip0_162_683">
<rect width="8" height="8.45714" fill="white" transform="translate(61)"/>
</clipPath>
<clipPath id="clip1_162_683">
<rect width="8" height="8.45714" fill="white" transform="matrix(-1 0 0 -1 8 103.457)"/>
</clipPath>
</defs>
</svg>
