<svg width="20" height="39" viewBox="0 0 20 39" fill="none" xmlns="http://www.w3.org/2000/svg">
<rect width="20" height="39" fill="white"/>
<rect x="0.5" y="0.5" width="19" height="38" fill="url(#paint0_radial_172_195)" stroke="#50555A"/>
<g clip-path="url(#clip0_172_195)">
<g clip-path="url(#clip1_172_195)">
<path d="M1 1H24" stroke="#ACBECE" stroke-width="0.2"/>
<path d="M1 3H24" stroke="#ACBECE" stroke-width="0.2"/>
<path d="M1 5H24" stroke="#ACBECE" stroke-width="0.2"/>
<path d="M1 7H24" stroke="#ACBECE" stroke-width="0.2"/>
<path d="M1 9H24" stroke="#ACBECE" stroke-width="0.2"/>
<path d="M1 11H24" stroke="#ACBECE" stroke-width="0.2"/>
<path d="M1 13H24" stroke="#ACBECE" stroke-width="0.2"/>
<path d="M1 15H24" stroke="#ACBECE" stroke-width="0.2"/>
<path d="M1 17H24" stroke="#ACBECE" stroke-width="0.2"/>
<path d="M1 19H24" stroke="#ACBECE" stroke-width="0.2"/>
<path d="M1 21H24" stroke="#ACBECE" stroke-width="0.2"/>
<path d="M1 23H24" stroke="#ACBECE" stroke-width="0.2"/>
<path d="M1 25H24" stroke="#ACBECE" stroke-width="0.2"/>
<path d="M1 27H24" stroke="#ACBECE" stroke-width="0.2"/>
<path d="M1 29H24" stroke="#ACBECE" stroke-width="0.2"/>
<path d="M1 31H24" stroke="#ACBECE" stroke-width="0.2"/>
<path d="M1 33H24" stroke="#ACBECE" stroke-width="0.2"/>
<path d="M1 35H24" stroke="#ACBECE" stroke-width="0.2"/>
<path d="M1 37H24" stroke="#ACBECE" stroke-width="0.2"/>
</g>
<g clip-path="url(#clip2_172_195)">
<path d="M20 1V24" stroke="#ACBECE" stroke-width="0.2"/>
<path d="M18 1V44" stroke="#ACBECE" stroke-width="0.2"/>
<path d="M16 1V40" stroke="#ACBECE" stroke-width="0.2"/>
<path d="M14 1V42" stroke="#ACBECE" stroke-width="0.2"/>
<path d="M12 1V43" stroke="#ACBECE" stroke-width="0.2"/>
<path d="M10 1V45" stroke="#ACBECE" stroke-width="0.2"/>
<path d="M8 1V51" stroke="#ACBECE" stroke-width="0.2"/>
<path d="M6 1V44" stroke="#ACBECE" stroke-width="0.2"/>
<path d="M4 1V44" stroke="#ACBECE" stroke-width="0.2"/>
<path d="M2 1V40" stroke="#ACBECE" stroke-width="0.2"/>
<path d="M0 1V24" stroke="#ACBECE" stroke-width="0.2"/>
</g>
<g clip-path="url(#clip3_172_195)">
<rect width="1" height="7" transform="matrix(0 -1 -1 0 14 1)" fill="#EAE9E7"/>
<path d="M6.5 7.5C9.5 7.33333 14 6.8 14 0" stroke="#94ABBE" stroke-width="0.3"/>
<rect width="8" height="0.8" transform="matrix(0 -1 -1 0 7 8)" fill="#50555A"/>
</g>
</g>
<defs>
<radialGradient id="paint0_radial_172_195" cx="0" cy="0" r="1" gradientUnits="userSpaceOnUse" gradientTransform="translate(10 19.5) rotate(90) scale(27 8.85246)">
<stop stop-color="#C4D4E1"/>
<stop offset="1" stop-color="#B5C6D4"/>
</radialGradient>
<clipPath id="clip0_172_195">
<rect width="20" height="39" fill="white"/>
</clipPath>
<clipPath id="clip1_172_195">
<rect width="18" height="37" fill="white" transform="translate(1 1)"/>
</clipPath>
<clipPath id="clip2_172_195">
<rect width="37" height="37" fill="white" transform="matrix(0 1 -1 0 28 1)"/>
</clipPath>
<clipPath id="clip3_172_195">
<rect width="8" height="8" fill="white" transform="matrix(0 -1 -1 0 14 8)"/>
</clipPath>
</defs>
</svg>
