<svg width="540" height="900" viewBox="0 0 540 900" fill="none" xmlns="http://www.w3.org/2000/svg">
<g id="Mfirst">
<g id="Union">
<mask id="path-1-inside-1_116_221" fill="white">
<path d="M324 356.998H336V332H440V367H431.908V672.254H351.264V672.205H148.225V643H147.984V558.872L215 559V583.946H326.428V485.838H351.264V469H323L322.898 430H264.021L264.04 435.824L236 436V430H159V326H324V356.998ZM229 291H228.917V311.974H179.729V291H145.627V380.933H100V228H229V291Z"/>
</mask>
<path d="M324 356.998H336V332H440V367H431.908V672.254H351.264V672.205H148.225V643H147.984V558.872L215 559V583.946H326.428V485.838H351.264V469H323L322.898 430H264.021L264.04 435.824L236 436V430H159V326H324V356.998ZM229 291H228.917V311.974H179.729V291H145.627V380.933H100V228H229V291Z" fill="#F0F0F0"/>
<path d="M324 356.998H323V357.998H324V356.998ZM336 356.998V357.998H337V356.998H336ZM336 332V331H335V332H336ZM440 332H441V331H440V332ZM440 367V368H441V367H440ZM431.908 367V366H430.908V367H431.908ZM431.908 672.254V673.254H432.908V672.254H431.908ZM351.264 672.254H350.264V673.254H351.264V672.254ZM351.264 672.205H352.264V671.205H351.264V672.205ZM148.225 672.205H147.225V673.205H148.225V672.205ZM148.225 643H149.225V642H148.225V643ZM147.984 643H146.984V644H147.984V643ZM147.984 558.872L147.986 557.872L146.984 557.87V558.872H147.984ZM215 559H216V558.002L215.002 558L215 559ZM215 583.946H214V584.946H215V583.946ZM326.428 583.946V584.946H327.428V583.946H326.428ZM326.428 485.838V484.838H325.428V485.838H326.428ZM351.264 485.838V486.838H352.264V485.838H351.264ZM351.264 469H352.264V468H351.264V469ZM323 469L322 469.003L322.003 470H323V469ZM322.898 430L323.898 429.997L323.896 429H322.898V430ZM264.021 430V429H263.017L263.021 430.003L264.021 430ZM264.04 435.824L264.046 436.824L265.043 436.818L265.04 435.821L264.04 435.824ZM236 436H235V437.006L236.006 437L236 436ZM236 430H237V429H236V430ZM159 430H158V431H159V430ZM159 326V325H158V326H159ZM324 326H325V325H324V326ZM229 291V292H230V291H229ZM228.917 291V290H227.917V291H228.917ZM228.917 311.974V312.974H229.917V311.974H228.917ZM179.729 311.974H178.729V312.974H179.729V311.974ZM179.729 291H180.729V290H179.729V291ZM145.627 291V290H144.627V291H145.627ZM145.627 380.933V381.933H146.627V380.933H145.627ZM100 380.933H99V381.933H100V380.933ZM100 228V227H99V228H100ZM229 228H230V227H229V228ZM324 356.998V357.998H336V356.998V355.998H324V356.998ZM336 356.998H337V332H336H335V356.998H336ZM336 332V333H440V332V331H336V332ZM440 332H439V367H440H441V332H440ZM440 367V366H431.908V367V368H440V367ZM431.908 367H430.908V672.254H431.908H432.908V367H431.908ZM431.908 672.254V671.254H351.264V672.254V673.254H431.908V672.254ZM351.264 672.254H352.264V672.205H351.264H350.264V672.254H351.264ZM351.264 672.205V671.205H148.225V672.205V673.205H351.264V672.205ZM148.225 672.205H149.225V643H148.225H147.225V672.205H148.225ZM148.225 643V642H147.984V643V644H148.225V643ZM147.984 643H148.984V558.872H147.984H146.984V643H147.984ZM147.984 558.872L147.982 559.872L214.998 560L215 559L215.002 558L147.986 557.872L147.984 558.872ZM215 559H214V583.946H215H216V559H215ZM215 583.946V584.946H326.428V583.946V582.946H215V583.946ZM326.428 583.946H327.428V485.838H326.428H325.428V583.946H326.428ZM326.428 485.838V486.838H351.264V485.838V484.838H326.428V485.838ZM351.264 485.838H352.264V469H351.264H350.264V485.838H351.264ZM351.264 469V468H323V469V470H351.264V469ZM323 469L324 468.997L323.898 429.997L322.898 430L321.898 430.003L322 469.003L323 469ZM322.898 430V429H264.021V430V431H322.898V430ZM264.021 430L263.021 430.003L263.04 435.828L264.04 435.824L265.04 435.821L265.021 429.997L264.021 430ZM264.04 435.824L264.034 434.824L235.994 435L236 436L236.006 437L264.046 436.824L264.04 435.824ZM236 436H237V430H236H235V436H236ZM236 430V429H159V430V431H236V430ZM159 430H160V326H159H158V430H159ZM159 326V327H324V326V325H159V326ZM324 326H323V356.998H324H325V326H324ZM229 291V290H228.917V291V292H229V291ZM228.917 291H227.917V311.974H228.917H229.917V291H228.917ZM228.917 311.974V310.974H179.729V311.974V312.974H228.917V311.974ZM179.729 311.974H180.729V291H179.729H178.729V311.974H179.729ZM179.729 291V290H145.627V291V292H179.729V291ZM145.627 291H144.627V380.933H145.627H146.627V291H145.627ZM145.627 380.933V379.933H100V380.933V381.933H145.627V380.933ZM100 380.933H101V228H100H99V380.933H100ZM100 228V229H229V228V227H100V228ZM229 228H228V291H229H230V228H229Z" fill="black" mask="url(#path-1-inside-1_116_221)"/>
</g>
</g>
</svg>
