<svg width="540" height="900" viewBox="0 0 540 900" fill="none" xmlns="http://www.w3.org/2000/svg">
<mask id="path-1-inside-1_103_31" fill="white">
<path d="M440 384.214L350.007 621L219.848 553.113L309.842 316.327L440 384.214ZM255.886 370.325H196.381V436.106H170.4V501.887H196.381V606.939H152.8V590.249H100V345.78H135.2V280H255.886V370.325Z"/>
</mask>
<path d="M440 384.214L350.007 621L219.848 553.113L309.842 316.327L440 384.214ZM255.886 370.325H196.381V436.106H170.4V501.887H196.381V606.939H152.8V590.249H100V345.78H135.2V280H255.886V370.325Z" fill="#F0F0F0"/>
<path d="M440 384.214L440.935 384.569L441.251 383.738L440.462 383.327L440 384.214ZM350.007 621L349.544 621.887L350.542 622.407L350.942 621.355L350.007 621ZM219.848 553.113L218.913 552.758L218.597 553.589L219.385 554L219.848 553.113ZM309.842 316.327L310.304 315.441L309.307 314.92L308.907 315.972L309.842 316.327ZM255.886 370.325V371.325H256.886V370.325H255.886ZM196.381 370.325V369.325H195.381V370.325H196.381ZM196.381 436.106V437.106H197.381V436.106H196.381ZM170.4 436.106V435.106H169.4V436.106H170.4ZM170.4 501.887H169.4V502.887H170.4V501.887ZM196.381 501.887H197.381V500.887H196.381V501.887ZM196.381 606.939V607.939H197.381V606.939H196.381ZM152.8 606.939H151.8V607.939H152.8V606.939ZM152.8 590.249H153.8V589.249H152.8V590.249ZM100 590.249H99V591.249H100V590.249ZM100 345.78V344.78H99V345.78H100ZM135.2 345.78V346.78H136.2V345.78H135.2ZM135.2 280V279H134.2V280H135.2ZM255.886 280H256.886V279H255.886V280ZM440 384.214L439.065 383.859L349.072 620.645L350.007 621L350.942 621.355L440.935 384.569L440 384.214ZM350.007 621L350.469 620.113L220.31 552.227L219.848 553.113L219.385 554L349.544 621.887L350.007 621ZM219.848 553.113L220.782 553.469L310.777 316.682L309.842 316.327L308.907 315.972L218.913 552.758L219.848 553.113ZM309.842 316.327L309.379 317.214L439.538 385.101L440 384.214L440.462 383.327L310.304 315.441L309.842 316.327ZM255.886 370.325V369.325H196.381V370.325V371.325H255.886V370.325ZM196.381 370.325H195.381V436.106H196.381H197.381V370.325H196.381ZM196.381 436.106V435.106H170.4V436.106V437.106H196.381V436.106ZM170.4 436.106H169.4V501.887H170.4H171.4V436.106H170.4ZM170.4 501.887V502.887H196.381V501.887V500.887H170.4V501.887ZM196.381 501.887H195.381V606.939H196.381H197.381V501.887H196.381ZM196.381 606.939V605.939H152.8V606.939V607.939H196.381V606.939ZM152.8 606.939H153.8V590.249H152.8H151.8V606.939H152.8ZM152.8 590.249V589.249H100V590.249V591.249H152.8V590.249ZM100 590.249H101V345.78H100H99V590.249H100ZM100 345.78V346.78H135.2V345.78V344.78H100V345.78ZM135.2 345.78H136.2V280H135.2H134.2V345.78H135.2ZM135.2 280V281H255.886V280V279H135.2V280ZM255.886 280H254.886V370.325H255.886H256.886V280H255.886Z" fill="black" mask="url(#path-1-inside-1_103_31)"/>
</svg>
